<?xml version="1.0" encoding="UTF-8"?>
<svg height="16px" viewBox="0 0 16 16" width="16px" xmlns="http://www.w3.org/2000/svg" xmlns:xlink="http://www.w3.org/1999/xlink">
    <filter id="a" height="100%" width="100%" x="0%" y="0%">
        <feColorMatrix in="SourceGraphic" type="matrix" values="0 0 0 0 1 0 0 0 0 1 0 0 0 0 1 0 0 0 1 0"/>
    </filter>
    <mask id="b">
        <g filter="url(#a)">
            <rect fill-opacity="0.105802" height="16" width="16"/>
        </g>
    </mask>
    <clipPath id="c">
        <rect height="152" width="192"/>
    </clipPath>
    <g clip-path="url(#c)" mask="url(#b)" transform="matrix(1 0 0 1 -168 -16)">
        <path d="m 32 30 c -8.835938 0 -16 7.164062 -16 16 v 72 c 0 -8.835938 7.164062 -16 16 -16 s 16 7.164062 16 16 v -72 c 0 -8.835938 -7.164062 -16 -16 -16 z m 16 88 c -0.003906 0.667969 -0.054688 1.335938 -0.140625 2 h 0.140625 z m -32 0 v 2 h 0.140625 c -0.085937 -0.664062 -0.136719 -1.332031 -0.140625 -2 z m 0 0"/>
    </g>
    <path d="m 6.957031 1 c -0.449219 0 -0.902343 0.175781 -1.238281 0.511719 l -5.25 5.25 c -0.675781 0.675781 -0.675781 1.796875 0 2.472656 l 5.25 5.25 c 0.675781 0.675781 1.800781 0.675781 2.476562 0 l 5.242188 -5.25 c 0.675781 -0.675781 0.675781 -1.796875 0 -2.472656 l -5.242188 -5.25 h -0.003906 c -0.335937 -0.335938 -0.789062 -0.511719 -1.234375 -0.511719 z m 0 2.105469 l 4.890625 4.894531 l -4.890625 4.894531 l -4.894531 -4.894531 z m 0 0" fill="#241f31"/>
    <g fill-opacity="0.231373">
        <path d="m 6 0 h 10 v 2 h -10 z m 0 0"/>
        <path d="m 6 14 h 10 v 2 h -10 z m 0 0"/>
        <path d="m 14 0 h 2 v 16 h -2 z m 0 0"/>
    </g>
</svg>
