<?xml version="1.0" encoding="UTF-8"?>
<svg height="128px" viewBox="0 0 128 128" width="128px" xmlns="http://www.w3.org/2000/svg" xmlns:xlink="http://www.w3.org/1999/xlink">
    <linearGradient id="a" gradientUnits="userSpaceOnUse" x1="8" x2="120.000053" y1="86" y2="86">
        <stop offset="0" stop-color="#b2b1ae"/>
        <stop offset="0.228668" stop-color="#deddda"/>
        <stop offset="0.285835" stop-color="#f0efec"/>
        <stop offset="0.825581" stop-color="#f7f6f3"/>
        <stop offset="0.91279" stop-color="#ebeae7"/>
        <stop offset="1" stop-color="#c0bfbc"/>
    </linearGradient>
    <clipPath id="b">
        <path d="m 58 54 h 39 v 47 h -39 z m 0 0"/>
    </clipPath>
    <clipPath id="c">
        <path d="m 69.019531 41.359375 l 26.046875 26.046875 c 1.539063 1.539062 1.539063 4.039062 0 5.578125 l -26.046875 26.046875 c -1.539062 1.539062 -4.035156 1.539062 -5.578125 0 l -26.042968 -26.046875 c -1.542969 -1.539063 -1.542969 -4.039063 0 -5.578125 l 26.042968 -26.046875 c 1.542969 -1.539063 4.039063 -1.539063 5.578125 0 z m 0 0"/>
    </clipPath>
    <clipPath id="d">
        <path d="m 36 40 h 29 v 45 h -29 z m 0 0"/>
    </clipPath>
    <clipPath id="e">
        <path d="m 69.019531 41.359375 l 26.046875 26.046875 c 1.539063 1.539062 1.539063 4.039062 0 5.578125 l -26.046875 26.046875 c -1.539062 1.539062 -4.035156 1.539062 -5.578125 0 l -26.042968 -26.046875 c -1.542969 -1.539063 -1.542969 -4.039063 0 -5.578125 l 26.042968 -26.046875 c 1.542969 -1.539063 4.039063 -1.539063 5.578125 0 z m 0 0"/>
    </clipPath>
    <clipPath id="f">
        <path d="m 36 40 h 35 v 51 h -35 z m 0 0"/>
    </clipPath>
    <clipPath id="g">
        <path d="m 69.019531 41.359375 l 26.046875 26.046875 c 1.539063 1.539062 1.539063 4.039062 0 5.578125 l -26.046875 26.046875 c -1.539062 1.539062 -4.035156 1.539062 -5.578125 0 l -26.042968 -26.046875 c -1.542969 -1.539063 -1.542969 -4.039063 0 -5.578125 l 26.042968 -26.046875 c 1.542969 -1.539063 4.039063 -1.539063 5.578125 0 z m 0 0"/>
    </clipPath>
    <clipPath id="h">
        <path d="m 36 40 h 61 v 61 h -61 z m 0 0"/>
    </clipPath>
    <clipPath id="i">
        <path d="m 69.019531 41.359375 l 26.046875 26.046875 c 1.539063 1.539062 1.539063 4.039062 0 5.578125 l -26.046875 26.046875 c -1.539062 1.539062 -4.035156 1.539062 -5.578125 0 l -26.042968 -26.046875 c -1.542969 -1.539063 -1.542969 -4.039063 0 -5.578125 l 26.042968 -26.046875 c 1.542969 -1.539063 4.039063 -1.539063 5.578125 0 z m 0 0"/>
    </clipPath>
    <filter id="j" height="100%" width="100%" x="0%" y="0%">
        <feColorMatrix in="SourceGraphic" type="matrix" values="0 0 0 0 1 0 0 0 0 1 0 0 0 0 1 0 0 0 1 0"/>
    </filter>
    <mask id="k">
        <g filter="url(#j)">
            <rect fill-opacity="0.105802" height="128" width="128"/>
        </g>
    </mask>
    <clipPath id="l">
        <rect height="152" width="192"/>
    </clipPath>
    <linearGradient id="m" gradientUnits="userSpaceOnUse" x1="8" x2="40" y1="62" y2="62">
        <stop offset="0" stop-color="#99c1f1"/>
        <stop offset="0.244439" stop-color="#d9e4f1"/>
        <stop offset="0.7506" stop-color="#7db3f1"/>
        <stop offset="0.922302" stop-color="#9dc4f1"/>
        <stop offset="1" stop-color="#5ca3f1"/>
    </linearGradient>
    <linearGradient id="n" gradientUnits="userSpaceOnUse" x1="56" x2="28" y1="278" y2="278">
        <stop offset="0" stop-color="#ffffff"/>
        <stop offset="1" stop-color="#ffffff" stop-opacity="0"/>
    </linearGradient>
    <path d="m 102.921875 28 c 9.460937 0 17.078125 -6 17.078125 -16 v 86.921875 c 0 9.460937 -7.617188 17.078125 -17.078125 17.078125 h -77.84375 c -9.460937 0 -17.078125 -7.617188 -17.078125 -17.078125 v -70.921875 z m 0 0" fill="url(#a)"/>
    <path d="m 94 112 v -42 h 2 v 42 z m 0 0" fill="#99c1f1"/>
    <path d="m 94 71.582031 l 12.402344 -12.402343 l 1.453125 1.453124 l -12.402344 12.402344 z m 0 0" fill="#99c1f1"/>
    <path d="m 96.351562 51.628906 l 1.359376 -1.339844 l 12.875 12.710938 l -1.359376 1.339844 z m 0 0" fill="#99c1f1"/>
    <path d="m 101.049026 237.084605 l 4.612767 4.612766 l 4.690106 -4.690106" fill="none" stroke="#99c1f1" stroke-linecap="round" stroke-width="2" transform="matrix(0.707107 -0.707107 0.707107 0.707107 -144.620021 -41.19168)"/>
    <path d="m 90.558594 64.414062 l 10.355468 -10.355468 l 1.441407 1.441406 l -10.355469 10.355469 z m 0 0" fill="#99c1f1"/>
    <path d="m 101.167798 254.676648 l 4.585145 -4.585146 l 3.62116 3.62116 c 0.911505 0.911505 2.629554 0.657389 2.629554 0.657389" fill="none" stroke="#99c1f1" stroke-linecap="round" stroke-width="2" transform="matrix(0.707107 -0.707107 0.707107 0.707107 -144.620021 -41.19168)"/>
    <g clip-path="url(#b)">
        <g clip-path="url(#c)">
            <path d="m 408.921371 561.923539 l -9.890905 29.831221 c -0.475524 -0.031701 -0.951048 -0.063403 -1.426572 -0.063403 c -8.020509 0.031702 -16.009317 0.665734 -23.934721 1.838694 l -13.790203 -28.499754 c -9.98601 1.902097 -19.813511 4.565033 -29.387399 7.957106 l 2.282516 31.416303 c -7.862001 3.201863 -15.438687 7.006057 -22.730059 11.317477 l -23.744511 -21.113277 c -8.464332 5.611186 -16.516543 11.856405 -24.029826 18.672252 l 14.075518 28.087633 c -5.991606 5.991606 -11.57109 12.395332 -16.643349 19.21118 l -30.053133 -10.461534 c -5.642888 8.464332 -10.683445 17.309083 -14.994865 26.502552 l 23.71281 20.510946 c -3.233565 7.8303 -5.928202 15.914212 -7.988808 24.124931 l -31.733318 1.870395 c -1.997202 9.954308 -3.265267 20.067124 -3.772493 30.211641 l 29.831222 9.890904 c -0.031702 0.475525 -0.031702 0.951049 -0.063403 1.426573 c 0.063403 7.988808 0.665734 16.009317 1.838694 23.934721 l -28.499754 13.790203 c 1.933799 9.98601 4.596734 19.813511 7.988807 29.387399 l 31.384601 -2.282516 c 3.233565 7.862001 7.006058 15.438687 11.317477 22.730059 l -21.081575 23.71281 c 5.611186 8.496033 11.856405 16.516542 18.672253 24.061527 l 28.05593 -14.075518 c 5.991606 5.991606 12.427034 11.57109 19.21118 16.611647 l -10.429832 30.084835 c 8.43263 5.642888 17.277382 10.651743 26.470851 14.994865 l 20.510946 -23.71281 c 7.862001 3.233565 15.914211 5.896501 24.156632 7.988808 l 1.838694 31.701616 c 9.954307 2.028904 20.067123 3.296969 30.21164 3.804194 l 9.890905 -29.831221 c 0.475524 0.031702 0.951048 0.031702 1.426573 0.063403 c 8.020509 -0.063403 16.009316 -0.697435 23.934721 -1.838694 l 13.790203 28.499754 c 9.986009 -1.933799 19.81351 -4.596734 29.4191 -7.988807 l -2.282516 -31.416303 c 7.830299 -3.201863 15.438687 -6.974356 22.730059 -11.317477 l 23.71281 21.113277 c 8.464331 -5.611186 16.516542 -11.856405 24.061527 -18.672253 l -14.10722 -28.087632 c 6.023308 -5.959904 11.571091 -12.395332 16.643349 -19.179478 l 30.053133 10.429832 c 5.642888 -8.432631 10.683445 -17.309083 15.026567 -26.470851 l -23.744511 -20.510946 c 3.265266 -7.862001 5.928202 -15.914211 7.988807 -24.156632 l 31.733319 -1.838694 c 1.997201 -9.986009 3.265266 -20.067123 3.772492 -30.211641 l -29.831222 -9.890904 c 0.031702 -0.475524 0.063404 -0.951049 0.063404 -1.426573 c -0.063404 -8.020509 -0.665734 -16.009316 -1.838694 -23.934721 l 28.499754 -13.790203 c -1.933799 -9.986009 -4.596735 -19.813511 -7.988808 -29.4191 l -31.384601 2.282516 c -3.201863 -7.830299 -7.006057 -15.438687 -11.317477 -22.730059 l 21.081575 -23.71281 c -5.611186 -8.464332 -11.856404 -16.516542 -18.672252 -24.061527 l -28.055931 14.107219 c -5.991606 -6.023307 -12.427034 -11.57109 -19.21118 -16.643348 l 10.429832 -30.053133 c -8.43263 -5.67459 -17.277381 -10.683445 -26.47085 -15.026567 l -20.510946 23.744511 c -7.8303 -3.265266 -15.914212 -5.928202 -24.156632 -7.988807 l -1.838694 -31.733319 c -9.954308 -1.997201 -20.067124 -3.265266 -30.211641 -3.772492 z m -11.317477 75.798566 c 70.092275 0 126.933274 56.840999 126.933274 126.933274 s -56.840999 126.901573 -126.933274 126.901573 s -126.933274 -56.809298 -126.933274 -126.901573 s 56.840999 -126.933274 126.933274 -126.933274 z m 0 0" fill="#99c1f1" fill-opacity="0.337255" stroke="#3584e4" stroke-linecap="round" stroke-linejoin="round" stroke-width="8.115614" transform="matrix(0.123219 0 0 0.123219 34.687227 -14.57965)"/>
        </g>
    </g>
    <g clip-path="url(#d)">
        <g clip-path="url(#e)">
            <path d="m 41.0625 34.867188 l -1.21875 3.675781 c -0.058594 -0.003907 -0.117188 -0.007813 -0.175781 -0.011719 c -0.984375 0.007812 -1.96875 0.085938 -2.945313 0.230469 l -1.703125 -3.511719 c -1.230469 0.234375 -2.441406 0.5625 -3.621093 0.980469 l 0.28125 3.871093 c -0.964844 0.394532 -1.902344 0.863282 -2.800782 1.394532 l -2.921875 -2.601563 c -1.046875 0.691407 -2.035156 1.460938 -2.964843 2.300781 l 1.738281 3.460938 c -0.742188 0.738281 -1.425781 1.527344 -2.050781 2.367188 l -3.703126 -1.289063 c -0.699218 1.042969 -1.316406 2.132813 -1.851562 3.265625 l 2.921875 2.527344 c -0.398437 0.964844 -0.726563 1.960937 -0.980469 2.972656 l -3.910156 0.230469 c -0.25 1.226562 -0.40625 2.472656 -0.464844 3.722656 l 3.671875 1.21875 c 0 0.058594 -0.003906 0.117187 -0.007812 0.175781 c 0.007812 0.984375 0.085937 1.972656 0.230469 2.945313 l -3.511719 1.703125 c 0.234375 1.230468 0.5625 2.441406 0.980469 3.621094 l 3.871093 -0.28125 c 0.394531 0.96875 0.859375 1.902343 1.394531 2.800781 l -2.601562 2.921875 c 0.691406 1.046875 1.460938 2.035156 2.300781 2.964844 l 3.460938 -1.734376 c 0.738281 0.738282 1.527343 1.421876 2.367187 2.046876 l -1.289062 3.703124 c 1.039062 0.699219 2.132812 1.316407 3.265625 1.851563 l 2.527343 -2.921875 c 0.964844 0.398438 1.957032 0.726562 2.972657 0.980469 l 0.226562 3.910156 c 1.230469 0.25 2.472657 0.40625 3.726563 0.46875 l 1.214844 -3.675781 c 0.058593 0 0.117187 0.003906 0.175781 0.007812 c 0.988281 -0.007812 1.972656 -0.085937 2.949219 -0.230468 l 1.703124 3.515624 c 1.230469 -0.238281 2.441407 -0.566406 3.621094 -0.984374 l -0.28125 -3.871094 c 0.964844 -0.394532 1.902344 -0.859375 2.800782 -1.394532 l 2.921874 2.601563 c 1.042969 -0.691406 2.035157 -1.460937 2.964844 -2.300781 l -1.738281 -3.460938 c 0.742187 -0.734375 1.425781 -1.527344 2.050781 -2.367187 l 3.703125 1.289062 c 0.699219 -1.039062 1.316407 -2.132812 1.851563 -3.265625 l -2.925782 -2.523437 c 0.402344 -0.96875 0.730469 -1.960938 0.984376 -2.976563 l 3.910156 -0.226562 c 0.25 -1.230469 0.402344 -2.472656 0.464844 -3.722656 l -3.675782 -1.21875 c 0.003906 -0.058594 0.007813 -0.117188 0.011719 -0.175782 c -0.007813 -0.988281 -0.085937 -1.972656 -0.230469 -2.949218 l 3.511719 -1.699219 c -0.234375 -1.230469 -0.5625 -2.441407 -0.980469 -3.625 l -3.871094 0.28125 c -0.394531 -0.964844 -0.859374 -1.902344 -1.394531 -2.800781 l 2.601563 -2.921876 c -0.691406 -1.042968 -1.460938 -2.035156 -2.300782 -2.964843 l -3.460937 1.738281 c -0.738281 -0.742188 -1.527344 -1.425781 -2.367187 -2.050781 l 1.289062 -3.703125 c -1.042969 -0.699219 -2.132812 -1.316406 -3.265625 -1.851563 l -2.527344 2.925781 c -0.964843 -0.402343 -1.960937 -0.730468 -2.972656 -0.984374 l -0.230469 -3.910157 c -1.226562 -0.25 -2.46875 -0.402343 -3.722656 -0.464843 z m 0 0" fill="#a3c8ef" fill-opacity="0.168627"/>
        </g>
    </g>
    <g clip-path="url(#f)">
        <g clip-path="url(#g)">
            <path d="m 51.739253 401.291446 l -9.890904 29.831222 c -0.475525 -0.031702 -0.951049 -0.063404 -1.426573 -0.095105 c -7.988808 0.063403 -15.977615 0.697435 -23.903019 1.870395 l -13.821905 -28.499754 c -9.98601 1.902097 -19.813511 4.565033 -29.387399 7.957106 l 2.282516 31.416303 c -7.830299 3.201863 -15.438687 7.006057 -22.730059 11.317477 l -23.71281 -21.113277 c -8.496033 5.611186 -16.516542 11.856405 -24.061527 18.672252 l 14.10722 28.087633 c -6.023308 5.991606 -11.571091 12.395332 -16.643349 19.21118 l -30.053133 -10.461534 c -5.67459 8.464332 -10.683445 17.309083 -15.026566 26.502552 l 23.712809 20.510946 c -3.233565 7.8303 -5.896501 15.914212 -7.957106 24.124931 l -31.733318 1.870395 c -2.028904 9.954308 -3.296969 20.067124 -3.772493 30.211641 l 29.79952 9.890904 c 0 0.475525 -0.031702 0.951049 -0.063403 1.426573 c 0.063403 7.988808 0.697435 16.009317 1.870395 23.903019 l -28.499753 13.821905 c 1.902097 9.98601 4.565032 19.813511 7.957105 29.387399 l 31.416303 -2.282516 c 3.201863 7.862001 6.974356 15.438687 11.317477 22.730059 l -21.113277 23.71281 c 5.611186 8.496033 11.856405 16.516542 18.672253 24.061527 l 28.087632 -14.075518 c 5.991606 5.991606 12.395332 11.539389 19.21118 16.611647 l -10.461534 30.053133 c 8.432631 5.67459 17.309083 10.683445 26.502552 15.026567 l 20.510946 -23.71281 c 7.8303 3.233565 15.88251 5.896501 24.124931 7.957106 l 1.838694 31.733318 c 9.986009 2.028904 20.067123 3.296969 30.243342 3.804194 l 9.859203 -29.831221 c 0.475524 0 0.951049 0.031702 1.426573 0.063403 c 8.020509 -0.063403 16.009316 -0.697435 23.934721 -1.870395 l 13.821905 28.531455 c 9.986009 -1.933799 19.81351 -4.596734 29.387398 -7.988807 l -2.282516 -31.416303 c 7.830299 -3.201863 15.438687 -6.974356 22.730059 -11.317477 l 23.71281 21.113277 c 8.464332 -5.611186 16.516542 -11.856405 24.061527 -18.672253 l -14.107219 -28.087632 c 6.023307 -5.959904 11.57109 -12.395332 16.643348 -19.21118 l 30.053133 10.461534 c 5.67459 -8.432631 10.683445 -17.309083 15.026567 -26.502552 l -23.744511 -20.479245 c 3.265266 -7.862001 5.928202 -15.914211 7.988807 -24.156632 l 31.733319 -1.838694 c 2.028903 -9.986009 3.265266 -20.067123 3.772492 -30.211641 l -29.831221 -9.890904 c 0.031701 -0.475524 0.063403 -0.951049 0.095104 -1.426573 c -0.063403 -8.020509 -0.697435 -16.009316 -1.870395 -23.934721 l 28.499754 -13.790203 c -1.902097 -9.986009 -4.565033 -19.81351 -7.957106 -29.4191 l -31.416303 2.282516 c -3.201863 -7.830299 -6.974355 -15.438687 -11.317477 -22.730059 l 21.113277 -23.71281 c -5.611186 -8.464332 -11.856405 -16.516542 -18.672252 -24.061527 l -28.087633 14.107219 c -5.991606 -6.023307 -12.395332 -11.57109 -19.21118 -16.643348 l 10.461534 -30.053133 c -8.464332 -5.67459 -17.309083 -10.683445 -26.502552 -15.026567 l -20.510946 23.744511 c -7.8303 -3.265266 -15.914212 -5.928202 -24.124931 -7.988807 l -1.870395 -31.733319 c -9.954308 -2.028903 -20.035422 -3.265266 -30.211641 -3.772492 z m 0 0" fill="none" stroke="#3584e4" stroke-width="8.115614" transform="matrix(0.123219 0 0 0.123219 34.687227 -14.57965)"/>
        </g>
    </g>
    <g clip-path="url(#h)">
        <g clip-path="url(#i)">
            <path d="m 519.712793 124.50803 h 293.565545 c 19.14363 0 34.678214 15.534585 34.700631 34.700631 l -0.022417 293.543129 c 0.022417 19.166046 -15.512168 34.700631 -34.700631 34.700631 h -293.520712 c -19.188462 0 -34.723047 -15.534585 -34.700631 -34.700631 l -0.022416 -293.543129 c 0.022416 -19.166046 15.557001 -34.700631 34.700631 -34.700631 z m 0 0" fill="none" stroke="#3584e4" stroke-width="32.462456" transform="matrix(0.0871292 0.0871292 -0.0871292 0.0871292 34.687227 -14.57965)"/>
        </g>
    </g>
    <path d="m 35.992188 112 v -42 h -1.992188 v 42 z m 0 0" fill="#99c1f1"/>
    <g clip-path="url(#l)" mask="url(#k)" transform="matrix(1 0 0 1 -8 -16)">
        <path d="m 32 30 c -8.835938 0 -16 7.164062 -16 16 v 72 c 0 -8.835938 7.164062 -16 16 -16 s 16 7.164062 16 16 v -72 c 0 -8.835938 -7.164062 -16 -16 -16 z m 16 88 c -0.003906 0.667969 -0.054688 1.335938 -0.140625 2 h 0.140625 z m -32 0 v 2 h 0.140625 c -0.085937 -0.664062 -0.136719 -1.332031 -0.140625 -2 z m 0 0"/>
    </g>
    <path d="m 24 12 c -8.835938 0 -16 7.164062 -16 16 v 72 c 0 -8.835938 7.164062 -16 16 -16 s 16 7.164062 16 16 v -72 c 0 -8.835938 -7.164062 -16 -16 -16 z m 16 88 c -0.003906 0.667969 -0.054688 1.335938 -0.140625 2 h 0.140625 z m -32 0 v 2 h 0.140625 c -0.085937 -0.664062 -0.136719 -1.332031 -0.140625 -2 z m 0 0" fill="url(#m)"/>
    <path d="m 41.566406 110.0625 l -5 -5 l 5.078125 -5.082031" fill="none" stroke="#99c1f1" stroke-linecap="round" stroke-width="2"/>
    <path d="m 36 106 v -1.988281 h 60 v 1.988281 z m 0 0" fill="#99c1f1"/>
    <path d="m 89 110.0625 l 5 -5 l -5.082031 -5.082031" fill="none" stroke="#99c1f1" stroke-linecap="round" stroke-width="2"/>
    <g fill="#1a5fb4">
        <path d="m 95 104 c 0.550781 0 1 0.449219 1 1 s -0.449219 1 -1 1 s -1 -0.449219 -1 -1 s 0.449219 -1 1 -1 z m 0 0"/>
        <path d="m 35 104 c 0.550781 0 1 0.449219 1 1 s -0.449219 1 -1 1 s -1 -0.449219 -1 -1 s 0.449219 -1 1 -1 z m 0 0"/>
        <path d="m 107 60 c 0.550781 0 1 0.449219 1 1 s -0.449219 1 -1 1 s -1 -0.449219 -1 -1 s 0.449219 -1 1 -1 z m 0 0"/>
        <path d="m 101 54 c 0.550781 0 1 0.449219 1 1 s -0.449219 1 -1 1 s -1 -0.449219 -1 -1 s 0.449219 -1 1 -1 z m 0 0"/>
    </g>
    <path d="m 95.027344 70.265625 c 0 2.242187 -1.816406 4.058594 -4.058594 4.058594 c -2.238281 0 -4.058594 -1.816407 -4.058594 -4.058594 s 1.820313 -4.058594 4.058594 -4.058594 c 2.242188 0 4.058594 1.816407 4.058594 4.058594 z m 0 0" fill="none" stroke="#99c1f1" stroke-linecap="round" stroke-linejoin="round" stroke-width="2"/>
    <path d="m 118 14 h 2 v 86 h -2 z m 0 0" fill="#ffffff"/>
    <path d="m 119 271 c 0.039062 10.226562 -5.480469 15.390625 -16 16 h -76" fill="none" stroke="url(#n)" stroke-width="2" transform="matrix(1 0 0 1 0 -172)"/>
</svg>
